<?xml version="1.0" standalone="no"?>
<!DOCTYPE svg PUBLIC "-//W3C//DTD SVG 20010904//EN"
 "http://www.w3.org/TR/2001/REC-SVG-20010904/DTD/svg10.dtd">
<svg version="1.0" xmlns="http://www.w3.org/2000/svg"
 width="512.000000pt" height="512.000000pt" viewBox="0 0 512.000000 512.000000"
 preserveAspectRatio="xMidYMid meet">
<metadata>
Created by potrace 1.14, written by Peter Selinger 2001-2017
</metadata>
<g transform="translate(0.000000,512.000000) scale(0.100000,-0.100000)"
fill="#000000" stroke="none">
<path d="M530 5113 c-41 -7 -152 -44 -195 -66 -87 -43 -187 -138 -244 -232
-57 -95 -84 -187 -87 -305 -7 -232 76 -413 251 -547 206 -157 536 -162 753
-10 74 51 95 71 140 132 96 129 132 248 127 420 -5 175 -61 310 -179 427 -124
123 -253 179 -431 183 -60 1 -121 1 -135 -2z m225 -224 c90 -25 181 -89 234
-167 197 -288 -21 -683 -367 -666 -236 12 -417 211 -406 444 14 273 273 460
539 389z"/>
<path d="M1529 5092 l-34 -30 -1 -711 c0 -391 -4 -714 -7 -718 -4 -3 -327 -7
-718 -7 l-711 -1 -30 -34 c-27 -30 -30 -39 -25 -79 3 -30 13 -53 31 -71 l26
-26 715 0 c629 0 715 -2 716 -15 5 -86 2 -1675 -3 -1683 -4 -7 -226 -10 -718
-11 l-712 -1 -30 -34 c-27 -30 -30 -39 -25 -79 3 -30 13 -53 31 -71 l26 -26
715 0 c629 0 715 -2 716 -15 0 -8 1 -331 2 -717 l2 -703 25 -24 c49 -49 134
-45 166 7 18 31 19 57 20 735 0 487 4 706 11 710 14 9 1681 7 1690 -1 3 -4 7
-326 7 -717 l1 -710 25 -24 c52 -51 136 -45 167 12 20 36 20 51 19 730 0 382
2 699 6 705 4 7 226 10 717 11 l711 1 26 26 c18 18 28 41 31 71 5 40 2 49 -25
79 l-30 34 -704 2 c-387 1 -710 2 -718 2 -13 1 -15 102 -14 846 0 465 4 848 7
852 4 3 326 7 717 7 l710 1 26 26 c18 18 28 41 31 71 5 40 2 49 -25 79 l-30
34 -711 1 c-391 0 -714 4 -718 7 -3 4 -7 326 -7 717 l-1 710 -27 26 c-18 19
-40 28 -71 31 -39 4 -49 1 -78 -25 l-34 -30 -1 -711 c0 -391 -4 -714 -7 -718
-9 -8 -1685 -8 -1694 0 -3 4 -7 326 -7 717 l-1 710 -27 26 c-18 19 -40 28 -71
31 -39 4 -49 1 -78 -25z m1871 -1681 c13 -1 15 -102 14 -847 0 -588 -4 -848
-11 -852 -14 -9 -1681 -7 -1690 1 -12 12 -8 1688 4 1695 8 5 1596 8 1683 3z"/>
<path d="M2450 3193 c-41 -7 -152 -44 -195 -66 -87 -43 -187 -138 -244 -232
-57 -95 -84 -187 -87 -305 -7 -232 76 -413 251 -547 206 -157 536 -162 753
-10 74 51 95 71 140 132 96 129 132 248 127 420 -5 175 -61 310 -179 427 -124
123 -253 179 -431 183 -60 1 -121 1 -135 -2z m225 -224 c90 -25 181 -89 234
-167 197 -288 -21 -683 -367 -666 -236 12 -417 211 -406 444 14 273 273 460
539 389z"/>
<path d="M3913 4893 c-30 -6 -71 -46 -79 -77 -13 -53 6 -79 193 -268 l186
-187 -174 -173 c-97 -96 -183 -185 -192 -198 -24 -35 -21 -84 6 -116 19 -22
34 -28 79 -32 l55 -4 187 187 188 188 183 -183 183 -183 57 -5 c44 -4 60 -1
75 13 30 27 42 81 26 119 -8 17 -93 110 -190 206 -97 96 -176 179 -176 183 0
5 83 92 185 194 102 102 186 192 186 201 4 43 -3 78 -19 95 -21 23 -62 44 -82
42 -8 -1 -23 -3 -32 -3 -9 -1 -102 -87 -206 -191 l-189 -189 -179 180 c-148
149 -228 216 -246 207 -2 -1 -13 -4 -25 -6z"/>
<path d="M3900 1263 c-48 -18 -81 -84 -65 -133 4 -13 90 -106 192 -208 l184
-186 -179 -180 c-99 -100 -185 -191 -191 -203 -15 -29 -14 -59 4 -92 17 -34
34 -42 96 -46 l47 -3 187 187 186 188 184 -184 c101 -100 189 -184 197 -184 7
-1 24 -3 38 -5 80 -10 118 31 111 122 0 13 -75 95 -190 211 l-189 190 180 179
c99 98 186 193 193 209 34 77 -39 161 -122 140 -18 -4 -98 -76 -215 -192
l-187 -186 -172 172 c-95 94 -184 181 -199 191 -27 20 -60 24 -90 13z"/>
</g>
</svg>
